<svg id="レイヤー_1" data-name="レイヤー 1" xmlns="http://www.w3.org/2000/svg" width="109.24" height="127.18" viewBox="0 0 109.24 127.18"><defs><style>.cls-1{fill:#fff;}</style></defs><title>名称未設定-4</title><path class="cls-1" d="M9.32,121.25H10.6a10.09,10.09,0,0,0,1.27-.06v1.66a10.66,10.66,0,0,0-1.28-.07H9.77a6.8,6.8,0,0,0,1.11,1.38,6.17,6.17,0,0,0,1.33,1,8.33,8.33,0,0,0-.81,1.72,7.1,7.1,0,0,1-2.13-2.52c0,0.35,0,.7,0,1V126a12.37,12.37,0,0,0,.07,1.38H7.65A12.93,12.93,0,0,0,7.71,126v-0.66c0-.29,0-0.62,0-1a7.18,7.18,0,0,1-2.26,2.43,6.91,6.91,0,0,0-.88-1.47V126a12.53,12.53,0,0,0,.07,1.4H3A13.08,13.08,0,0,0,3,126v-1.47c0-.24,0-0.66,0-1a5.86,5.86,0,0,1-.85,1.75,8.59,8.59,0,0,0-.53-1.85,7.49,7.49,0,0,0,1.23-2.88H2.65a3,3,0,0,0-.7.05V119a2.9,2.9,0,0,0,.7.05H3v-0.71a7.65,7.65,0,0,0-.07-1.13H4.67a7.62,7.62,0,0,0-.07,1.13V119H4.8a2.3,2.3,0,0,0,.5,0v0.76a6.65,6.65,0,0,0,.6-2.28l1.51,0.38c0,0.14-.08.27-0.16,0.64,0,0.08,0,.09-0.07.27H7.71v-0.46a7.8,7.8,0,0,0-.06-1.1H9.38a7.42,7.42,0,0,0-.07,1.1v0.46h1a9.73,9.73,0,0,0,1.27-.07v1.66a10.78,10.78,0,0,0-1.28-.06h-1v1Zm-4.71,4a6.58,6.58,0,0,0,1.42-1,6.37,6.37,0,0,0,1.14-1.45H6.81a8.09,8.09,0,0,0-1.28.08v-0.61c-0.17.42-.36,0.93-0.47,1.3a3.64,3.64,0,0,1-.48-0.91c0,0.29,0,.71,0,1.11v1.52Zm0.92-4.1a4.09,4.09,0,0,0,.56.07,5.76,5.76,0,0,0-.79-0.67h0a2.12,2.12,0,0,0-.47,0H4.64A4.34,4.34,0,0,0,5.53,122v-0.79Zm1.17-.89a6.89,6.89,0,0,1-.45,1H7.71v-1h-1Z" transform="translate(-0.38 -0.41)"/><path class="cls-1" d="M15.42,122.87c-0.39,0-.86,0-1.2,0v-1.56a11.67,11.67,0,0,0,1.24.05h2.46a11.32,11.32,0,0,0,1.22-.05v1.56c-0.34,0-.8,0-1.21,0H17.51v2c0.69-.12,1.09-0.21,2-0.42V126c-2,.47-3.07.66-4.7,0.9-0.36.05-.53,0.08-0.75,0.13l-0.24-1.71a15.18,15.18,0,0,0,2-.2v-2.26H15.42Zm7.28-4a6.16,6.16,0,0,0,1.05-.05v1.65a12,12,0,0,0-1.41-.06H21.09a12.69,12.69,0,0,0,.53,3.34,4.75,4.75,0,0,0,.76,1.54,5.81,5.81,0,0,0,.3-1.59,6.17,6.17,0,0,0,1.35.8,5.9,5.9,0,0,1-.62,2.24,1.1,1.1,0,0,1-.92.61,2.64,2.64,0,0,1-1.9-1.68,12.89,12.89,0,0,1-1.17-5.26H15.28c-0.51,0-.93,0-1.41.06v-1.66a12.3,12.3,0,0,0,1.41.07h4.08a12.11,12.11,0,0,0-.09-1.53h1.79a3.9,3.9,0,0,0,0,.64c0,0.1,0,.33,0,0.89h1a5.44,5.44,0,0,0-.83-0.93l1.24-.63a8.77,8.77,0,0,1,1,1.13l-0.85.43H22.7Z" transform="translate(-0.38 -0.41)"/><path class="cls-1" d="M27.88,121.08a9.86,9.86,0,0,1-1.52.74,7.1,7.1,0,0,0-.81-1.6A8.28,8.28,0,0,0,28,119a6.45,6.45,0,0,0,1.83-1.76h1.76a6.41,6.41,0,0,0,1.84,1.67,9.39,9.39,0,0,0,2.6,1.21,7.27,7.27,0,0,0-.76,1.72,10.09,10.09,0,0,1-1.62-.79v0.62a9.37,9.37,0,0,0-1,0H28.91a10.09,10.09,0,0,0-1,0v-0.61Zm-0.49,2.71a11.23,11.23,0,0,0-1.33.07v-1.66c0.38,0,.83.05,1.33,0.05h6.82c0.52,0,.92,0,1.31-0.05v1.66a11,11,0,0,0-1.31-.07H33.14a23.62,23.62,0,0,1,2.29,2.8l-1.5.92-0.51-.8-1.86.2c-0.72.08-3.65,0.33-4.11,0.35s-0.68.07-1,.11l-0.21-1.81c0.28,0,.48,0,0.72,0l0.76,0a13.24,13.24,0,0,0,.95-1.77H27.4Zm4.91-3.61a8.06,8.06,0,0,1-1.52-1.44,7.54,7.54,0,0,1-1.53,1.44h3.05Zm-1.67,3.61a13.75,13.75,0,0,1-.95,1.72c1.59-.07,1.59-0.07,2.72-0.16-0.3-.37-0.46-0.54-0.92-1l1.28-.51H30.63Z" transform="translate(-0.38 -0.41)"/><path class="cls-1" d="M40.79,126.26a11.05,11.05,0,0,0,0,1.15H39.09a8.06,8.06,0,0,0,.07-1.2V124a7.6,7.6,0,0,1-1,.68,6.11,6.11,0,0,0-.7-1.63,6.58,6.58,0,0,0,1.69-1.24,4.8,4.8,0,0,0,1.13-1.51H38.79a7.41,7.41,0,0,0-.95,0v-1.61a5.74,5.74,0,0,0,.84,0h0.49V118a5.14,5.14,0,0,0-.06-0.83h1.73a4.74,4.74,0,0,0-.05.84v0.79h0.29a3.88,3.88,0,0,0,.63,0l0.71,0.75a3.75,3.75,0,0,0-.25.51,8.91,8.91,0,0,1-1,1.77,5.31,5.31,0,0,0,1.74,1.3,7.74,7.74,0,0,0-.81,1.55,5.08,5.08,0,0,1-1.31-1.12v2.73Zm4.79-.76h0.87a11.62,11.62,0,0,0,1.33-.05v1.71c-0.46,0-.89-0.07-1.31-0.07H42.93a12.32,12.32,0,0,0-1.27.07v-1.71a11.81,11.81,0,0,0,1.3.05h0.9v-4H43.3c-0.37,0-.72,0-1.06.05v-1.68a7.15,7.15,0,0,0,1.06.05h0.56v-1.47a9.4,9.4,0,0,0-.08-1.28h1.86a9,9,0,0,0-.07,1.28v1.47h0.86a7.11,7.11,0,0,0,1.07-.05v1.68c-0.36,0-.7-0.05-1.07-0.05H45.58v4Z" transform="translate(-0.38 -0.41)"/><path class="cls-1" d="M58.27,121.56c0-.41,0-0.64,0-1.24a18.17,18.17,0,0,1-6.78,5.93,7.55,7.55,0,0,0-1.92-2.46,15.22,15.22,0,0,0,6.83-5.56H53.06a23.56,23.56,0,0,0-2.46.1v-2.8a19.52,19.52,0,0,0,2.51.13h5.1l0-.81a16.7,16.7,0,0,0-.1-1.84h3a14.56,14.56,0,0,0-.07,1.58v1.09h1a14.1,14.1,0,0,0,2.33-.13v2.79a19.58,19.58,0,0,0-2.28-.08h-1l0.08,7a21.62,21.62,0,0,0,.11,2.25H58.17a12,12,0,0,0,.13-2v-0.23l0-3.1v-0.65Z" transform="translate(-0.38 -0.41)"/><path class="cls-1" d="M79,115.32a2.15,2.15,0,0,0-.34.91,15.8,15.8,0,0,1-3.28,6.93,16.52,16.52,0,0,1-6.21,4.43,8.6,8.6,0,0,0-2.05-2.74,13.13,13.13,0,0,0,5.49-3.19,10.05,10.05,0,0,0,2.71-4.82H68.55a22.49,22.49,0,0,0-2.74.1V114a15.76,15.76,0,0,0,2.79.13h7.74a2.55,2.55,0,0,0,1.19-.21Z" transform="translate(-0.38 -0.41)"/><path class="cls-1" d="M92,117a4.42,4.42,0,0,0-.57.57,18.3,18.3,0,0,1-3,2.66v5a16.24,16.24,0,0,0,.1,2.25h-2.9a14.84,14.84,0,0,0,.12-2.25v-3.41a19.51,19.51,0,0,1-4.25,1.92,8.11,8.11,0,0,0-1.38-2.31,20.55,20.55,0,0,0,6.6-3.1,11.87,11.87,0,0,0,3-2.92Z" transform="translate(-0.38 -0.41)"/><path class="cls-1" d="M106,127.45a26.2,26.2,0,0,0-4.68-4.63,17.68,17.68,0,0,1-6,4.47,8.53,8.53,0,0,0-1.83-2.58,15.36,15.36,0,0,0,5.28-3.29,13.11,13.11,0,0,0,3.28-4.79l-4.24.06a19.39,19.39,0,0,0-2.59.16L95.2,114a12.08,12.08,0,0,0,1.71.11l0.91,0,5.57-.08a3,3,0,0,0,1.3-.18l1.43,1.47a2.59,2.59,0,0,0-.59,1,19.25,19.25,0,0,1-2.4,4.4,38.11,38.11,0,0,1,5.18,4.42Z" transform="translate(-0.38 -0.41)"/><path class="cls-1" d="M0.38,93.5a13,13,0,0,1,4.1-9.61,13.5,13.5,0,0,1,9.81-4,13.24,13.24,0,0,1,9.71,4,13.24,13.24,0,0,1,4.07,9.73A13,13,0,0,1,24,103.35a13.67,13.67,0,0,1-9.9,4,13.67,13.67,0,0,1-9.21-3.55A13,13,0,0,1,.38,93.5Zm4,0a9.56,9.56,0,0,0,3,7.22,9.47,9.47,0,0,0,6.78,2.83,9.54,9.54,0,0,0,7-2.88,10.26,10.26,0,0,0,0-14.19,9.35,9.35,0,0,0-7-2.88,9.44,9.44,0,0,0-7,2.88A9.54,9.54,0,0,0,4.41,93.54Z" transform="translate(-0.38 -0.41)"/><path class="cls-1" d="M44.56,84.13H35.33V90.5h8.9v3.76h-8.9v12.61h-4V80.38H44.56v3.76Z" transform="translate(-0.38 -0.41)"/><path class="cls-1" d="M60.66,84.13H51.43V90.5h8.9v3.76h-8.9v12.61h-4V80.38H60.66v3.76Z" transform="translate(-0.38 -0.41)"/><path class="cls-1" d="M67.54,80.38v26.49h-4V80.38h4Z" transform="translate(-0.38 -0.41)"/><path class="cls-1" d="M91.72,81.79v4.73a11.08,11.08,0,0,0-7.17-2.9,9.13,9.13,0,0,0-6.88,2.93,9.89,9.89,0,0,0-2.81,7.14,9.65,9.65,0,0,0,2.81,7,9.29,9.29,0,0,0,6.9,2.87,8.45,8.45,0,0,0,3.59-.69,10.35,10.35,0,0,0,1.71-.93,20.14,20.14,0,0,0,1.86-1.41v4.83a14.39,14.39,0,0,1-7.21,1.95,13.29,13.29,0,0,1-9.69-4,13.14,13.14,0,0,1-4-9.64,13.6,13.6,0,0,1,3.35-9,13.32,13.32,0,0,1,10.65-4.85A13.58,13.58,0,0,1,91.72,81.79Z" transform="translate(-0.38 -0.41)"/><path class="cls-1" d="M109.62,84.13H99V90.5h10.31v3.76H99v8.85h10.62v3.76H95V80.38h14.62v3.76Z" transform="translate(-0.38 -0.41)"/><path class="cls-1" d="M52.88,24.41H40.38V11.91h12.5v12.5Zm-10.5-2h8.5v-8.5h-8.5v8.5Z" transform="translate(-0.38 -0.41)"/><rect class="cls-1" x="57.5" y="12.5" width="10.5" height="10.5"/><rect class="cls-1" x="41" y="28" width="10.5" height="10.5"/><path class="cls-1" d="M69.38,39.91H56.88V27.41h12.5v12.5Zm-10.5-2h8.5v-8.5h-8.5v8.5Z" transform="translate(-0.38 -0.41)"/><path class="cls-1" d="M55,0.41a34.5,34.5,0,1,0,34.5,34.5A34.54,34.54,0,0,0,55,.41Zm17.29,7H37.71A32.39,32.39,0,0,1,72.29,7.41ZM42.11,43.93v16H37.75V9.41h34.5v50.5H68.14v-16h-26Zm24.3,1.73V59.91H43.84V45.66H66.41ZM22.5,34.91A32.47,32.47,0,0,1,35.75,8.74V61.07A32.47,32.47,0,0,1,22.5,34.91Zm14.43,27H73.07A32.43,32.43,0,0,1,36.93,61.91Zm37.32-.83V8.74A32.46,32.46,0,0,1,74.25,61.07Z" transform="translate(-0.38 -0.41)"/></svg>