<svg id="レイヤー_1" data-name="レイヤー 1" xmlns="http://www.w3.org/2000/svg" width="303.56" height="69" viewBox="0 0 303.56 69"><defs><style>.cls-1,.cls-3{fill:#2771c5;}.cls-2,.cls-4{fill:none;}.cls-2,.cls-3,.cls-4{stroke:#2771c5;stroke-miterlimit:10;}.cls-2,.cls-3{stroke-width:2px;}.cls-4{stroke-width:1.73px;}</style></defs><title>header-logo</title><path class="cls-1" d="M88.43,40.58a18.23,18.23,0,0,1,5.76-13.5A19,19,0,0,1,108,21.44a18.61,18.61,0,0,1,13.64,5.69,18.6,18.6,0,0,1,5.71,13.67,18.3,18.3,0,0,1-5.74,13.62A19.67,19.67,0,0,1,94.74,55,18.28,18.28,0,0,1,88.43,40.58Zm5.66,0.07A13.45,13.45,0,0,0,98.24,50.8a13.73,13.73,0,0,0,19.4-.07,13.71,13.71,0,0,0,4-10,13.64,13.64,0,0,0-4-10,13.88,13.88,0,0,0-19.6,0A13.43,13.43,0,0,0,94.09,40.65Z" transform="translate(-9.73 -6.17)"/><path class="cls-1" d="M150.51,27.42h-13v8.94h12.51v5.28H137.54V59.36h-5.62V22.14h18.58v5.28Z" transform="translate(-9.73 -6.17)"/><path class="cls-1" d="M173.13,27.42h-13v8.94h12.51v5.28H160.16V59.36h-5.62V22.14h18.58v5.28Z" transform="translate(-9.73 -6.17)"/><path class="cls-1" d="M182.79,22.14V59.36h-5.62V22.14h5.62Z" transform="translate(-9.73 -6.17)"/><path class="cls-1" d="M216.77,24.14v6.65a15.58,15.58,0,0,0-10.08-4.07A12.83,12.83,0,0,0,197,30.84a13.9,13.9,0,0,0-4,10,13.56,13.56,0,0,0,4,9.88,13.06,13.06,0,0,0,9.69,4,11.9,11.9,0,0,0,5-1,14.56,14.56,0,0,0,2.4-1.3,28.3,28.3,0,0,0,2.62-2v6.77A20.29,20.29,0,0,1,206.64,60,18.67,18.67,0,0,1,193,54.46a18.46,18.46,0,0,1-5.62-13.55,19.11,19.11,0,0,1,4.7-12.68,18.72,18.72,0,0,1,15-6.82A19,19,0,0,1,216.77,24.14Z" transform="translate(-9.73 -6.17)"/><path class="cls-1" d="M241.92,27.42H227v8.94h14.49v5.28H227V54.08h14.92v5.28H221.39V22.14h20.54v5.28Z" transform="translate(-9.73 -6.17)"/><circle class="cls-2" cx="34.5" cy="34.5" r="33.5"/><path class="cls-1" d="M61.48,15.17v50.5H27V15.17h34.5m2-2H25v54.5h38.5V13.17h0Z" transform="translate(-9.73 -6.17)"/><rect class="cls-2" x="20.88" y="12.5" width="10.5" height="10.5"/><rect class="cls-3" x="37.38" y="12.5" width="10.5" height="10.5"/><rect class="cls-3" x="20.88" y="28" width="10.5" height="10.5"/><rect class="cls-2" x="37.38" y="28" width="10.5" height="10.5"/><rect class="cls-4" x="22.48" y="44.39" width="24.3" height="16.22"/><path class="cls-1" d="M261.79,34.88h1.28a10.1,10.1,0,0,0,1.27-.06v1.66a10.68,10.68,0,0,0-1.28-.07h-0.81a6.77,6.77,0,0,0,1.11,1.38,6.17,6.17,0,0,0,1.33,1,8.38,8.38,0,0,0-.82,1.72,7.11,7.11,0,0,1-2.13-2.52c0,0.35,0,.7,0,1v0.77a12.36,12.36,0,0,0,.07,1.38h-1.72a12.64,12.64,0,0,0,.07-1.38V39c0-.29,0-0.62,0-1A7.17,7.17,0,0,1,258,40.42a6.89,6.89,0,0,0-.88-1.47v0.7a12.52,12.52,0,0,0,.07,1.4h-1.72a12.8,12.8,0,0,0,.07-1.4V38.19c0-.24,0-0.66,0-1a5.83,5.83,0,0,1-.85,1.75,8.59,8.59,0,0,0-.53-1.85,7.49,7.49,0,0,0,1.23-2.88h-0.25a3,3,0,0,0-.7.05V32.6a2.9,2.9,0,0,0,.7.05h0.36V32a7.65,7.65,0,0,0-.07-1.13h1.73a7.62,7.62,0,0,0-.07,1.13v0.71h0.2a2.31,2.31,0,0,0,.5,0v0.76a6.65,6.65,0,0,0,.6-2.28l1.51,0.38c0,0.14-.08.27-0.16,0.64,0,0.08,0,.09-0.06.27h0.53V31.93a7.64,7.64,0,0,0-.07-1.1h1.74a7.57,7.57,0,0,0-.07,1.1v0.46h1a9.74,9.74,0,0,0,1.27-.07V34a10.79,10.79,0,0,0-1.28-.06h-1v1Zm-4.71,4a6.58,6.58,0,0,0,1.42-1,6.38,6.38,0,0,0,1.14-1.45h-0.36a8.09,8.09,0,0,0-1.28.08V35.88c-0.17.42-.36,0.93-0.47,1.3a3.67,3.67,0,0,1-.48-0.91c0,0.29,0,.71,0,1.11V38.9Zm0.92-4.1a4.07,4.07,0,0,0,.56.07,5.82,5.82,0,0,0-.79-0.67h0a2.12,2.12,0,0,0-.47,0h-0.2A4.34,4.34,0,0,0,258,35.6V34.81Zm1.17-.89a6.77,6.77,0,0,1-.45,1h1.46v-1h-1Z" transform="translate(-9.73 -6.17)"/><path class="cls-1" d="M272.24,36.5c-0.39,0-.86,0-1.2,0V35a11.65,11.65,0,0,0,1.24.05h2.46A11.34,11.34,0,0,0,276,35v1.56c-0.34,0-.8,0-1.21,0h-0.42v2c0.68-.12,1.09-0.21,2-0.42v1.54c-2,.47-3.07.66-4.7,0.9-0.36.05-.53,0.08-0.75,0.13L270.66,39a15.14,15.14,0,0,0,2-.2V36.5h-0.46Zm7.28-4a6.15,6.15,0,0,0,1.05-.05v1.65a12,12,0,0,0-1.41-.06h-1.25a12.65,12.65,0,0,0,.53,3.34,4.75,4.75,0,0,0,.76,1.54,5.76,5.76,0,0,0,.3-1.59,6.13,6.13,0,0,0,1.35.8,5.9,5.9,0,0,1-.62,2.24,1.11,1.11,0,0,1-.92.61,2.64,2.64,0,0,1-1.9-1.68A12.89,12.89,0,0,1,276.24,34H272.1c-0.51,0-.93,0-1.41.06V32.41a12.31,12.31,0,0,0,1.41.07h4.08a11.75,11.75,0,0,0-.09-1.53h1.79a4,4,0,0,0,0,.64c0,0.1,0,.33,0,0.89h1a5.47,5.47,0,0,0-.83-0.93l1.24-.63a8.83,8.83,0,0,1,1,1.13l-0.85.43h0.12Z" transform="translate(-9.73 -6.17)"/><path class="cls-1" d="M289,34.72a9.9,9.9,0,0,1-1.52.74,7.1,7.1,0,0,0-.81-1.6,8.29,8.29,0,0,0,2.5-1.2A6.45,6.45,0,0,0,291,30.91h1.76a6.37,6.37,0,0,0,1.84,1.67,9.39,9.39,0,0,0,2.6,1.21,7.23,7.23,0,0,0-.76,1.72,10.06,10.06,0,0,1-1.62-.79v0.62a9.38,9.38,0,0,0-1,0h-3.75a10.09,10.09,0,0,0-1,0V34.72Zm-0.49,2.71a11.32,11.32,0,0,0-1.33.06V35.83c0.38,0,.83.05,1.33,0.05h6.82c0.52,0,.92,0,1.31-0.05v1.66a11.13,11.13,0,0,0-1.31-.06H294.3a23.86,23.86,0,0,1,2.29,2.8l-1.5.92-0.51-.8-1.86.2c-0.72.08-3.65,0.33-4.11,0.35s-0.68.07-1,.11l-0.21-1.81c0.28,0,.48,0,0.72,0l0.76,0a13.16,13.16,0,0,0,.95-1.77h-1.33Zm4.91-3.61a8,8,0,0,1-1.52-1.44,7.57,7.57,0,0,1-1.53,1.44h3.05Zm-1.67,3.61a13.62,13.62,0,0,1-.95,1.72c1.59-.06,1.59-0.06,2.72-0.16-0.3-.37-0.46-0.54-0.92-1l1.28-.51h-2.13Z" transform="translate(-9.73 -6.17)"/><path class="cls-1" d="M306.3,39.89a10.73,10.73,0,0,0,0,1.15H304.6a8.36,8.36,0,0,0,.07-1.2V37.64a7.6,7.6,0,0,1-1,.68,6.12,6.12,0,0,0-.7-1.63,6.55,6.55,0,0,0,1.69-1.24,4.78,4.78,0,0,0,1.13-1.51H304.3a7.41,7.41,0,0,0-.94,0V32.39a5.74,5.74,0,0,0,.84,0h0.49v-0.8a5,5,0,0,0-.07-0.83h1.73a4.64,4.64,0,0,0-.05.84v0.79h0.29a3.91,3.91,0,0,0,.63,0l0.71,0.75a3.75,3.75,0,0,0-.25.51,8.91,8.91,0,0,1-1,1.77,5.29,5.29,0,0,0,1.74,1.3,7.64,7.64,0,0,0-.81,1.55,5.06,5.06,0,0,1-1.32-1.12v2.73Zm4.79-.76H312a11.63,11.63,0,0,0,1.33-.05v1.71c-0.46,0-.89-0.07-1.31-0.07h-3.53a12.46,12.46,0,0,0-1.27.07V39.08a11.81,11.81,0,0,0,1.3.05h0.9v-4h-0.57c-0.37,0-.72,0-1.06.05V33.53a7.15,7.15,0,0,0,1.06.05h0.57V32.11a9.4,9.4,0,0,0-.08-1.28h1.86a9,9,0,0,0-.06,1.28v1.47h0.86a7.15,7.15,0,0,0,1.08-.05v1.68c-0.36,0-.7-0.05-1.08-0.05h-0.86v4Z" transform="translate(-9.73 -6.17)"/><path class="cls-1" d="M262.94,53.2c0-.41,0-0.64,0-1.24a18.18,18.18,0,0,1-6.78,5.93,7.56,7.56,0,0,0-1.92-2.46,15.21,15.21,0,0,0,6.83-5.56h-3.36a23.56,23.56,0,0,0-2.46.1v-2.8a19.52,19.52,0,0,0,2.51.13h5.1l0-.81a16.7,16.7,0,0,0-.1-1.84h3a14.56,14.56,0,0,0-.07,1.58v1.09h1a14.11,14.11,0,0,0,2.33-.13V50a19.59,19.59,0,0,0-2.28-.08h-1l0.08,7a21.62,21.62,0,0,0,.11,2.25h-3.13a12,12,0,0,0,.13-2V56.95l0-3.1V53.2Z" transform="translate(-9.73 -6.17)"/><path class="cls-1" d="M283.67,47a2.16,2.16,0,0,0-.34.91,15.78,15.78,0,0,1-3.28,6.93,16.51,16.51,0,0,1-6.21,4.43,8.58,8.58,0,0,0-2.05-2.74,13.13,13.13,0,0,0,5.49-3.19A10.06,10.06,0,0,0,280,48.47h-6.76a22.48,22.48,0,0,0-2.74.1V45.62a15.75,15.75,0,0,0,2.79.13H281a2.55,2.55,0,0,0,1.19-.21Z" transform="translate(-9.73 -6.17)"/><path class="cls-1" d="M296.67,48.68a4.42,4.42,0,0,0-.57.57,18.3,18.3,0,0,1-3,2.66v5a16.06,16.06,0,0,0,.1,2.25h-2.9a14.85,14.85,0,0,0,.11-2.25V53.53a19.48,19.48,0,0,1-4.25,1.92,8.09,8.09,0,0,0-1.39-2.31,20.56,20.56,0,0,0,6.6-3.1,11.84,11.84,0,0,0,3-2.92Z" transform="translate(-9.73 -6.17)"/><path class="cls-1" d="M310.72,59.08A26.24,26.24,0,0,0,306,54.45a17.66,17.66,0,0,1-6,4.46,8.53,8.53,0,0,0-1.83-2.57,15.36,15.36,0,0,0,5.28-3.29,13.11,13.11,0,0,0,3.28-4.79l-4.24.06a19.39,19.39,0,0,0-2.59.16l-0.08-2.9a12.06,12.06,0,0,0,1.71.11l0.91,0,5.57-.08a3,3,0,0,0,1.3-.18l1.43,1.47a2.59,2.59,0,0,0-.59,1,19.18,19.18,0,0,1-2.4,4.4A38.17,38.17,0,0,1,313,56.67Z" transform="translate(-9.73 -6.17)"/></svg>