<svg id="レイヤー_1" data-name="レイヤー 1" xmlns="http://www.w3.org/2000/svg" width="160" height="160" viewBox="0 0 160 160"><defs><style>.cls-1{fill:#55acee}.cls-2{fill:#fff}</style></defs><title>tw</title><path class="cls-1" d="M80 0a80 80 0 1 0 80 80A80 80 0 0 0 80 0z"/><path class="cls-2" d="M112.54 65.54v2c0 20.82-15.85 44.83-44.83 44.83a44.58 44.58 0 0 1-24.15-7.08 31.78 31.78 0 0 0 23.37-6.49 15.77 15.77 0 0 1-14.72-10.94 16 16 0 0 0 3 .28 15.78 15.78 0 0 0 4.15-.55 15.77 15.77 0 0 1-12.68-15.45v-.2a15.7 15.7 0 0 0 7.14 2 15.78 15.78 0 0 1-4.88-21 44.73 44.73 0 0 0 32.48 16.4A15.77 15.77 0 0 1 108.27 55a31.51 31.51 0 0 0 10-3.82 15.81 15.81 0 0 1-6.93 8.72 31.54 31.54 0 0 0 9.05-2.48 32 32 0 0 1-7.85 8.12z"/></svg>